HIERARCHY
ROOT Hips
{
	OFFSET 55.423698 -12.051916 96.912399
	CHANNELS 6 Xposition Yposition Zposition Xrotation Yrotation Zrotation
	JOINT spine
	{
		OFFSET 0.000000 -0.458068 7.965683
		CHANNELS 3 Xrotation Yrotation Zrotation
		JOINT spine1
		{
			OFFSET 0.000000 -0.000002 10.243103
			CHANNELS 3 Xrotation Yrotation Zrotation
			JOINT spine2
			{
				OFFSET 0.000000 -0.000001 9.814751
				CHANNELS 3 Xrotation Yrotation Zrotation
				JOINT Neck
				{
					OFFSET 0.000000 -1.201385 25.198601
					CHANNELS 3 Xrotation Yrotation Zrotation
					JOINT Head
					{
						OFFSET 0.000000 -0.000001 7.613144
						CHANNELS 3 Xrotation Yrotation Zrotation
						End Site
						{
							OFFSET 0.000000 6.077327 18.428101
						}
					}
				}
				JOINT RightShoulder
				{
					OFFSET -4.132698 0.575449 10.599205
					CHANNELS 3 Xrotation Yrotation Zrotation
					JOINT RightArm
					{
						OFFSET 0.000000 -0.000003 13.901794
						CHANNELS 3 Xrotation Yrotation Zrotation
						JOINT RightArmRoll
						{
							OFFSET 0.000000 -0.000001 7.017883
							CHANNELS 3 Xrotation Yrotation Zrotation
							JOINT RightForeArm
							{
								OFFSET 0.000000 -0.000003 20.440598
								CHANNELS 3 Xrotation Yrotation Zrotation
								JOINT RightForeArmRoll
								{
									OFFSET 0.000000 -0.000002 7.875153
									CHANNELS 3 Xrotation Yrotation Zrotation
									JOINT RightHand
									{
										OFFSET 0.000000 -0.000002 15.803696
										CHANNELS 3 Xrotation Yrotation Zrotation
										End Site
										{
											OFFSET 0.000000 0.000000 0.100006
										}
									}
								}
							}
						}
					}
				}
				JOINT LeftShoulder
				{
					OFFSET 4.132698 0.575449 10.599205
					CHANNELS 3 Xrotation Yrotation Zrotation
					JOINT LeftArm
					{
						OFFSET 0.000000 -0.000003 13.901794
						CHANNELS 3 Xrotation Yrotation Zrotation
						JOINT LeftArmRoll
						{
							OFFSET 0.000000 -0.000001 7.017883
							CHANNELS 3 Xrotation Yrotation Zrotation
							JOINT LeftForeArm
							{
								OFFSET 0.000000 -0.000003 20.440598
								CHANNELS 3 Xrotation Yrotation Zrotation
								JOINT LeftForeArmRoll
								{
									OFFSET 0.000000 -0.000002 7.875153
									CHANNELS 3 Xrotation Yrotation Zrotation
									JOINT LeftHand
									{
										OFFSET 0.000000 -0.000002 15.803696
										CHANNELS 3 Xrotation Yrotation Zrotation
										End Site
										{
											OFFSET 0.000000 0.000000 0.100006
										}
									}
								}
							}
						}
					}
				}
			}
		}
	}
	JOINT RightUpLeg
	{
		OFFSET -7.060478 1.086101 -1.294701
		CHANNELS 3 Xrotation Yrotation Zrotation
		JOINT RightUpLegRoll
		{
			OFFSET 0.000000 -0.000004 18.530800
			CHANNELS 3 Xrotation Yrotation Zrotation
			JOINT RightLeg
			{
				OFFSET 0.000000 0.000004 -22.947601
				CHANNELS 3 Xrotation Yrotation Zrotation
				JOINT RightLegRoll
				{
					OFFSET 0.000000 -0.000004 23.022598
					CHANNELS 3 Xrotation Yrotation Zrotation
					JOINT RightFoot
					{
						OFFSET 0.000000 -0.000003 19.162506
						CHANNELS 3 Xrotation Yrotation Zrotation
						JOINT RightToeBase
						{
							OFFSET 0.000000 -0.000003 16.018799
							CHANNELS 3 Xrotation Yrotation Zrotation
							End Site
							{
								OFFSET 0.006790 0.894206 7.757828
							}
						}
					}
				}
			}
		}
	}
	JOINT LeftUpLeg
	{
		OFFSET 7.060478 1.086101 -1.294701
		CHANNELS 3 Xrotation Yrotation Zrotation
		JOINT LeftUpLegRoll
		{
			OFFSET 0.000000 -0.000004 18.530899
			CHANNELS 3 Xrotation Yrotation Zrotation
			JOINT LeftLeg
			{
				OFFSET 0.000000 -0.000003 22.947502
				CHANNELS 3 Xrotation Yrotation Zrotation
				JOINT LeftLegRoll
				{
					OFFSET 0.000000 -0.000004 23.235504
					CHANNELS 3 Xrotation Yrotation Zrotation
					JOINT LeftFoot
					{
						OFFSET 0.000000 -0.000004 18.949600
						CHANNELS 3 Xrotation Yrotation Zrotation
						JOINT LeftToeBase
						{
							OFFSET 0.000000 -0.000002 16.018799
							CHANNELS 3 Xrotation Yrotation Zrotation
							End Site
							{
								OFFSET -0.030430 0.894205 7.757828
							}
						}
					}
				}
			}
		}
	}
}
MOTION
Frames: 8
Frame Time: 0.041667
53.929104 -11.811920 96.896797 -7.402676 -1.286908 4.158363 -1.394669 -0.192404 -0.136478 1.212697 -0.384549 -0.278578 2.857765 -0.387805 -0.273921 36.456022 -1.066072 7.381773 2.780241 0.611155 7.150921 -9.564616 -19.300328 -7.961514 204.123659 -157.047428 270.799652 0.000010 0.000013 0.000004 101.448745 -2.730375 10.793745 -0.000007 -0.000003 -3.004771 -5.000159 -7.999722 0.000060 -7.414798 31.672803 6.242941 -138.372488 170.693367 84.818327 -0.000005 0.000015 -0.000001 84.898083 -3.014870 -3.059045 0.000001 -0.000002 3.003050 -5.000200 7.999502 -0.000058 6.300676 -176.791469 4.804534 -179.999991 0.000005 -1.220003 173.824599 -2.752952 -0.531751 -0.000003 -0.000004 0.073148 69.117655 6.878249 2.149579 25.456957 -7.355615 0.000001 7.349182 176.900629 -0.758853 -0.000020 -0.000005 -1.293730 -8.080466 0.840537 0.275257 -0.000004 -0.000001 -0.078895 68.513156 -6.915938 -2.098349 25.456916 7.348461 -0.000001 
53.939999 -11.781024 96.902092 -7.382510 -1.283029 4.135955 -1.394737 -0.192221 -0.137600 1.212349 -0.384501 -0.281158 2.857416 -0.387781 -0.276501 36.451244 -1.060692 7.391311 2.763435 0.680058 7.152715 -9.557417 -19.287652 -7.948995 204.294182 -156.983128 270.961527 0.000009 0.000013 0.000004 101.345773 -2.708662 10.787117 -0.000009 -0.000003 -3.004769 -5.000160 -7.999722 0.000057 -7.379003 31.702972 6.196707 -138.412841 170.687192 84.789456 -0.000004 0.000016 -0.000002 85.015194 -3.000636 -3.089044 -0.000001 -0.000003 3.003029 -5.000199 7.999502 -0.000058 6.277328 -176.790322 4.798485 -179.999991 0.000005 -1.219006 173.840896 -2.753036 -0.530969 -0.000003 -0.000004 0.073065 69.104746 6.878475 2.149822 25.456953 -7.355616 0.000001 7.308502 176.902323 -0.756281 -0.000020 -0.000004 -1.292710 -8.107587 0.845394 0.276290 -0.000004 -0.000001 -0.079270 68.523975 -6.916213 -2.098322 25.456919 7.348464 -0.000002 
53.936699 -11.761721 97.040611 -7.361577 -1.279192 4.112988 -1.394878 -0.192040 -0.138775 1.211828 -0.384399 -0.283841 2.856905 -0.387704 -0.279182 36.444780 -1.055245 7.401084 2.749926 0.749346 7.154730 -9.550808 -19.277412 -7.937646 204.458229 -156.909103 271.120807 0.000007 0.000013 0.000004 101.217010 -2.682893 10.776507 -0.000006 -0.000002 -3.004771 -5.000160 -7.999722 0.000058 -7.349877 31.737533 6.160182 -138.455243 170.678900 84.758358 -0.000004 0.000016 -0.000002 85.121875 -2.988147 -3.117607 0.000001 -0.000003 3.003021 -5.000204 7.999502 -0.000062 6.248269 -176.789133 4.790749 -179.999991 0.000005 -1.219006 173.850062 -2.751100 -0.531312 -0.000003 -0.000004 0.073302 69.096612 6.878774 2.149685 25.456953 -7.355614 0.000000 7.270140 176.903047 -0.753902 -0.000020 -0.000005 -1.291730 -8.128511 0.850434 0.277032 -0.000004 -0.000001 -0.079289 68.531475 -6.916617 -2.098431 25.456919 7.348463 -0.000002 
53.933899 -11.752119 97.017609 -7.339915 -1.275406 4.089507 -1.395096 -0.191857 -0.139992 1.211188 -0.384241 -0.286582 2.856267 -0.387570 -0.281923 36.436095 -1.049762 7.411002 2.739796 0.818796 7.156868 -9.544806 -19.269717 -7.927536 204.615802 -156.826266 271.277465 0.000011 0.000013 0.000004 101.063427 -2.653344 10.760015 -0.000005 -0.000002 -3.004770 -5.000158 -7.999723 0.000056 -7.326797 31.776130 6.132467 -138.499557 170.668191 84.725546 -0.000003 0.000018 -0.000000 85.217511 -2.977529 -3.144374 0.000000 -0.000002 3.003009 -5.000200 7.999502 -0.000062 6.214275 -176.787945 4.781572 -179.999991 0.000005 -1.217995 173.853094 -2.748128 -0.532853 -0.000003 -0.000004 0.073809 69.092691 6.879055 2.149379 25.456957 -7.355613 -0.000000 7.233756 176.904796 -0.751427 -0.000020 -0.000005 -1.290800 -8.144044 0.855627 0.277522 -0.000004 -0.000001 -0.079010 68.536270 -6.917121 -2.098527 25.456919 7.348463 -0.000002 
53.935501 -11.734119 96.906898 -7.317621 -1.271701 4.065587 -1.395351 -0.191668 -0.141235 1.210479 -0.384027 -0.289344 2.855546 -0.387379 -0.284685 36.425020 -1.044303 7.420949 2.733169 0.888183 7.159061 -9.539444 -19.264752 -7.918708 204.767323 -156.735329 271.432127 0.000010 0.000013 0.000003 100.886361 -2.620431 10.737745 -0.000002 -0.000003 -3.004766 -5.000160 -7.999722 0.000059 -7.309136 31.818795 6.112673 -138.545907 170.654667 84.691518 -0.000002 0.000017 -0.000002 85.301379 -2.969043 -3.169135 0.000000 -0.000003 3.002989 -5.000197 7.999500 -0.000060 6.176065 -176.786715 4.771209 -179.999991 0.000006 -1.216998 173.850977 -2.743146 -0.533417 -0.000002 -0.000004 0.074531 69.092261 6.879383 2.148767 25.456955 -7.355617 0.000001 7.199007 176.906530 -0.748948 -0.000020 -0.000005 -1.289910 -8.154977 0.860945 0.277801 -0.000004 -0.000001 -0.078490 68.538462 -6.917737 -2.098607 25.456919 7.348463 -0.000001 
53.940601 -11.709021 96.953598 -7.294737 -1.268076 4.041287 -1.395640 -0.191468 -0.142492 1.209718 -0.383752 -0.292086 2.854795 -0.387131 -0.287426 36.411247 -1.038893 7.430836 2.730140 0.957290 7.161224 -9.534751 -19.262725 -7.911250 204.912860 -156.637316 271.584714 0.000011 0.000012 0.000003 100.687118 -2.584282 10.710762 -0.000007 -0.000002 -3.004771 -5.000162 -7.999722 0.000055 -7.296267 31.865267 6.099933 -138.594169 170.638042 84.656807 -0.000002 0.000019 -0.000003 85.372932 -2.962780 -3.191622 0.000002 -0.000006 3.002981 -5.000202 7.999499 -0.000059 6.134408 -176.785472 4.759889 -179.999991 0.000005 -1.216001 173.844666 -2.737151 -0.535071 -0.000003 -0.000004 0.075418 69.094883 6.879665 2.148156 25.456955 -7.355614 0.000001 7.165557 176.908293 -0.746423 -0.000020 -0.000005 -1.289049 -8.162118 0.866357 0.277907 -0.000003 -0.000000 -0.077787 68.538783 -6.918437 -2.098621 25.456919 7.348465 -0.000002 
53.941101 -11.692214 96.897804 -7.271331 -1.264542 4.016665 -1.395946 -0.191255 -0.143749 1.208967 -0.383421 -0.294766 2.854036 -0.386823 -0.290108 36.394369 -1.033579 7.440520 2.730808 1.025892 7.163289 -9.530741 -19.263625 -7.905175 205.052715 -156.532923 271.735579 0.000009 0.000012 0.000003 100.466946 -2.544757 10.678143 -0.000003 -0.000002 -3.004770 -5.000163 -7.999722 0.000059 -7.287569 31.915387 6.093355 -138.644494 170.617975 84.622082 -0.000002 0.000018 -0.000001 85.431583 -2.958868 -3.211652 0.000001 -0.000005 3.002970 -5.000202 7.999500 -0.000059 6.090056 -176.784229 4.747879 -179.999991 0.000005 -1.215004 173.835145 -2.730148 -0.535786 -0.000003 -0.000004 0.076418 69.099740 6.879994 2.147215 25.456957 -7.355617 0.000000 7.133062 176.911038 -0.743694 -0.000020 -0.000004 -1.288230 -8.166272 0.871835 0.277883 -0.000004 -0.000001 -0.076957 68.537526 -6.919142 -2.098733 25.456918 7.348464 -0.000002 
53.941502 -11.687019 96.908386 -7.247473 -1.261107 3.991776 -1.396250 -0.191022 -0.144993 1.208266 -0.383028 -0.297348 2.853336 -0.386453 -0.292691 36.374101 -1.028406 7.449925 2.735280 1.093761 7.165185 -9.527449 -19.267755 -7.900566 205.186983 -156.423080 271.884969 0.000010 0.000013 0.000004 100.226927 -2.502508 10.638967 -0.000005 -0.000002 -3.004771 -5.000162 -7.999720 0.000059 -7.282382 31.968895 6.092006 -138.696813 170.594015 84.587747 -0.000003 0.000019 -0.000001 85.476587 -2.957571 -3.228835 -0.000002 -0.000004 3.002950 -5.000200 7.999500 -0.000059 6.043751 -176.782945 4.735416 -179.999991 0.000005 -1.214007 173.823438 -2.723121 -0.537585 -0.000003 -0.000004 0.077478 69.106276 6.880310 2.146367 25.456955 -7.355614 0.000000 7.101192 176.912828 -0.740970 -0.000020 -0.000005 -1.287430 -8.168225 0.877348 0.277767 -0.000003 -0.000001 -0.076060 68.535122 -6.919873 -2.098820 25.456919 7.348465 0.000000 
